<svg xmlns="http://www.w3.org/2000/svg" xmlns:xlink="http://www.w3.org/1999/xlink" xmlns:lucid="lucid" width="480" height="200"><g transform="translate(-400 -100)" lucid:page-tab-id="0_0"><path d="M420 120h160v40H420z" stroke="#000" stroke-width="2" fill="#fff"/><use xlink:href="#a" transform="matrix(1,0,0,1,425,125) translate(42.289500000000004 21.966)"/><use xlink:href="#b" transform="matrix(1,0,0,1,425,125) translate(94.9305 21.966)"/><path d="M420 160h160v40H420z" stroke="#000" stroke-width="2" fill="#fff"/><use xlink:href="#c" transform="matrix(1,0,0,1,425,165) translate(53.12100000000001 21.966)"/><path d="M420 200h160v40H420z" stroke="#000" stroke-width="2" fill="#fff"/><use xlink:href="#c" transform="matrix(1,0,0,1,425,205) translate(53.12100000000001 21.966)"/><path d="M420 240h160v40H420z" stroke="#000" stroke-width="2" fill="#fff"/><use xlink:href="#c" transform="matrix(1,0,0,1,425,245) translate(53.12100000000001 21.966)"/><path d="M700 120h160v40H700z" stroke="#000" stroke-width="2" fill="#fff"/><use xlink:href="#a" transform="matrix(1,0,0,1,705,125) translate(42.816 21.966)"/><use xlink:href="#d" transform="matrix(1,0,0,1,705,125) translate(95.457 21.966)"/><path d="M700 160h160v40H700z" stroke="#000" stroke-width="2" fill="#fff"/><use xlink:href="#c" transform="matrix(1,0,0,1,705,165) translate(53.12100000000001 21.966)"/><path d="M700 200h160v40H700z" stroke="#000" stroke-width="2" fill="#fff"/><use xlink:href="#e" transform="matrix(1,0,0,1,705,205) translate(40.035000000000004 21.966)"/><use xlink:href="#f" transform="matrix(1,0,0,1,705,205) translate(97.725 21.966)"/><path d="M700 240h160v40H700z" stroke="#000" stroke-width="2" fill="#fff"/><use xlink:href="#c" transform="matrix(1,0,0,1,705,245) translate(53.12100000000001 21.966)"/><path d="M641 261h-60v-2h58v-8.2h2zm39.76-40H641v8.2h-2V219h41.76zM581 261h-1v-2h1zM695.76 220l-14.26 4.64v-9.28z"/><path d="M699 220l-18.5 6v-12zm-16.5 3.26l10.03-3.26-10.03-3.26z"/><g><use xlink:href="#g" transform="matrix(1,0,0,1,613.279,229.2) translate(0 17.766)"/></g><defs><path d="M449 0H179v-1446h270V0" id="h"/><path d="M565-850c-86 0-140 48-186 99V0H132v-1026c80 9 198-29 214 45l16 76c67-72 141-136 276-137 139-1 214 86 253 192 57-117 162-192 328-192 240 0 354 147 354 389V0h-247v-653c1-123-52-197-169-197s-180 76-180 197V0H729v-653c0-127-46-197-164-197" id="i"/><path d="M556-1045c246 0 380 151 380 397V0c-79-6-181 23-196-53l-22-73C630-49 541 18 379 16 194 13 81-77 81-262c0-184 152-247 321-292 78-21 176-31 293-34 10-155-29-262-170-262-104 0-161 40-224 77-47 28-107 5-127-31l-45-79c118-108 260-162 427-162zM317-275c-3 86 56 121 139 121 117 0 179-51 239-111v-173c-122 6-219 17-297 53-49 22-79 51-81 110" id="j"/><path d="M247-436C153-487 80-575 80-712c0-228 174-332 407-332 92 0 169 20 230 53h295c-4 63 19 133-53 146l-92 17c30 74 25 184-9 254-72 146-265 223-484 183-51 27-68 81-20 111 145 54 395 5 528 91 60 38 108 95 104 193-8 182-136 275-286 326-172 59-444 28-556-52C83 234 32 179 32 90c0-112 77-164 166-199-49-28-87-70-84-147 4-94 65-143 133-180zm247 621c132 0 252-20 264-139-10-98-129-93-228-102-63-6-132-5-191-13-47 27-93 62-93 127 0 112 123 127 248 127zM305-706c0 111 68 168 182 168s182-56 182-168c0-107-68-165-182-165s-182 58-182 165" id="k"/><path d="M991-153C899-47 760 15 568 15 237 15 63-197 63-535c0-237 116-392 287-467 61-27 129-40 206-40 287 0 444 174 444 465 0 54-3 95-57 95H309c4 226 158 349 385 292 52-13 93-39 132-62 32-19 73-16 93 9zM778-631c-4-143-73-234-217-234-154 0-226 95-247 234h464" id="l"/><g id="a"><use transform="matrix(0.009,0,0,0.009,0,0)" xlink:href="#h"/><use transform="matrix(0.009,0,0,0.009,5.651999999999999,0)" xlink:href="#i"/><use transform="matrix(0.009,0,0,0.009,20.808,0)" xlink:href="#j"/><use transform="matrix(0.009,0,0,0.009,30.231,0)" xlink:href="#k"/><use transform="matrix(0.009,0,0,0.009,39.546,0)" xlink:href="#l"/></g><path d="M1417 0h-208c-47 1-77-28-90-61l-108-295H412L304-61c-11 30-46 61-89 61H6l568-1446h275zM481-546h461c-77-218-163-424-231-651-66 230-154 432-230 651" id="m"/><use transform="matrix(0.009,0,0,0.009,0,0)" xlink:href="#m" id="b"/><path d="M368-163h620V0H174v-1433h194v1270" id="n"/><path d="M537-1031c235 0 353 147 353 383V0c-58-5-129 17-142-42l-20-94C637-55 545 19 375 16 200 13 92-76 92-253c0-184 160-243 332-285 79-19 176-28 291-31 12-184-31-318-200-318-113 0-181 45-243 91-36 26-82 14-99-17l-32-57c101-96 215-161 396-161zM263-261c0 103 62 152 165 152 140 0 216-64 287-136v-211c-141 4-258 19-349 60-60 27-103 62-103 135" id="o"/><path d="M443 299c-13 26-25 44-64 44H247L432-59 14-1013h154c30-1 46 18 55 37 95 228 197 450 287 682 6 14 8 30 11 45 10-32 18-60 30-90l263-637c18-60 124-30 194-37" id="p"/><path d="M954-142C850-8 572 61 364-22 180-96 74-268 74-527c0-234 108-389 275-463 59-26 125-39 198-39 273 0 420 174 420 453 0 48-2 70-43 70H250c8 226 98 375 322 380 114 2 191-38 258-82 70-46 94 37 124 66zM807-617c-5-171-86-278-256-281-181-3-273 116-295 281h551" id="q"/><path d="M584-856c-148 6-210 94-260 211V0H146v-1013c62 7 151-25 157 49l12 158c66-138 184-259 384-216 23 5 44 16 63 27l-23 133c-5 17-15 25-31 25-36 0-71-21-124-19" id="r"/><g id="c"><use transform="matrix(0.009,0,0,0.009,0,0)" xlink:href="#n"/><use transform="matrix(0.009,0,0,0.009,9.251999999999999,0)" xlink:href="#o"/><use transform="matrix(0.009,0,0,0.009,18.089999999999996,0)" xlink:href="#p"/><use transform="matrix(0.009,0,0,0.009,27.071999999999996,0)" xlink:href="#q"/><use transform="matrix(0.009,0,0,0.009,36.50399999999999,0)" xlink:href="#r"/></g><path d="M1177-1061c0 181-116 262-257 314 199 45 298 152 298 322C1218-130 997 0 692 0H146v-1446h499c307 3 532 89 532 385zM952-431c0-152-108-202-265-203H415v424h273c163-1 264-65 264-221zm-43-598c0-163-94-209-264-209H415v418h215c168-1 279-50 279-209" id="s"/><use transform="matrix(0.009,0,0,0.009,0,0)" xlink:href="#s" id="d"/><path d="M404 0H210v-1433h194V0" id="t"/><path d="M550-887c-107 0-172 65-226 132V0H146v-1013c60 6 147-22 154 37l13 104c69-80 148-156 287-157 148-1 223 92 258 211 51-126 153-211 323-211 232 0 338 149 338 384V0h-178v-645c1-148-62-242-203-242-142 0-218 94-218 242V0H742v-645c1-149-54-242-192-242" id="u"/><path d="M602 14c-133 0-212-47-278-119v448H146v-1356c60 6 147-22 154 37l15 120c80-93 179-175 341-175 282 0 383 224 383 518 0 237-92 406-253 487-54 27-116 40-184 40zm253-527c-3-212-53-374-258-374-136 0-207 69-273 153v490c57 77 121 120 238 120 207 0 295-164 293-389" id="v"/><path d="M1038-507c0 321-164 521-482 521S72-187 72-507c0-248 107-410 284-485 60-25 126-37 200-37 317 0 482 201 482 522zm-782 1c0 225 80 381 300 381 213 0 298-159 298-381 0-223-84-383-298-383-221 0-300 158-300 383" id="w"/><path d="M698-76c-54 52-145 92-245 92-162 1-249-96-249-260v-620c-58-9-160 26-160-39v-71l166-21 41-313c4-50 80-30 131-34v349h290v129H382v608c-2 78 40 125 111 126 60 2 88-33 128-48 9 0 18 6 25 17" id="x"/><g id="e"><use transform="matrix(0.009,0,0,0.009,0,0)" xlink:href="#t"/><use transform="matrix(0.009,0,0,0.009,5.526,0)" xlink:href="#u"/><use transform="matrix(0.009,0,0,0.009,20.304,0)" xlink:href="#v"/><use transform="matrix(0.009,0,0,0.009,30.24,0)" xlink:href="#w"/><use transform="matrix(0.009,0,0,0.009,40.248,0)" xlink:href="#r"/><use transform="matrix(0.009,0,0,0.009,47.501999999999995,0)" xlink:href="#x"/></g><path d="M1353 0h-150c-36 0-55-21-66-46l-134-346H360L226-46c-9 23-33 46-66 46H10l573-1433h197zM414-532h535l-225-583c-15-36-29-81-43-135-13 48-26 95-42 136" id="y"/><use transform="matrix(0.009,0,0,0.009,0,0)" xlink:href="#y" id="f"/><path d="M1057-1433v158H369v476h557v152H369v489h688V0H174v-1433h883" id="z"/><path d="M383-519L42-1013h171c30 0 38 9 50 27l248 380c6-19 14-38 26-56l218-320c12-15 21-30 45-31h164L623-529 978 0H807c-30 1-44-19-55-37L497-434c-5 19-11 37-21 52L240-37c-13 16-24 37-53 37H28" id="A"/><g id="g"><use transform="matrix(0.009,0,0,0.009,0,0)" xlink:href="#z"/><use transform="matrix(0.009,0,0,0.009,10.457999999999998,0)" xlink:href="#A"/><use transform="matrix(0.009,0,0,0.009,19.529999999999998,0)" xlink:href="#v"/><use transform="matrix(0.009,0,0,0.009,29.465999999999998,0)" xlink:href="#w"/><use transform="matrix(0.009,0,0,0.009,39.474,0)" xlink:href="#r"/><use transform="matrix(0.009,0,0,0.009,46.727999999999994,0)" xlink:href="#x"/></g></defs></g></svg>